<svg width="400" height="200" viewBox="0 0 400 200" xmlns="http://www.w3.org/2000/svg">
  <defs>
    <linearGradient id="bg3" x1="0" y1="0" x2="1" y2="1">
      <stop offset="0%" stop-color="#0A1222"/>
      <stop offset="100%" stop-color="#0E233C"/>
    </linearGradient>
    <linearGradient id="lineGrad" x1="0" y1="0" x2="1" y2="0">
      <stop offset="0%" stop-color="#3B82F6"/>
      <stop offset="100%" stop-color="#10B981"/>
    </linearGradient>
  </defs>
  <rect width="400" height="200" rx="24" fill="url(#bg3)"/>
  <path d="M60 150 C 110 110, 160 140, 210 90 C 260 40, 310 120, 350 70" fill="none" stroke="url(#lineGrad)" stroke-width="7" stroke-linecap="round"/>
  <circle cx="60" cy="150" r="8" fill="#EC4899"/><circle cx="210" cy="90" r="8" fill="#EC4899"/><circle cx="350" cy="70" r="8" fill="#EC4899"/>
  <rect x="110" y="40" width="180" height="100" rx="20" fill="#102A45" stroke="#3B82F6" stroke-width="2"/>
  <path d="M130 70 H150 M130 90 H210 M130 110 H200" fill="none" stroke="#E6F1FF" stroke-width="4" stroke-linecap="round"/>
  <path d="M260 120 L280 95 L300 130" fill="none" stroke="#10B981" stroke-width="6" stroke-linecap="round" stroke-linejoin="round"/>
  <text x="60" y="30" font-family="Poppins, sans-serif" font-size="16" fill="#E6F1FF">Predictive model</text>
  <text x="62" y="46" font-family="Lato, sans-serif" font-size="12" fill="#8892B0">High-value user forecast</text>
</svg>